<?xml version="1.0" encoding="UTF-8"?>
<svg id="Layer_1" xmlns="http://www.w3.org/2000/svg" version="1.1" viewBox="0 0 368.5 141.7">
  <!-- Generator: Adobe Illustrator 29.0.1, SVG Export Plug-In . SVG Version: 2.1.0 Build 192)  -->
  <defs>
    <style>
      .st0 {
        fill: #009540;
      }
    </style>
  </defs>
  <path class="st0" d="M261.1,41.2c-34,0-63.7,8.2-82.7,21.2h21.5c16.7-7,38.2-11.2,61.2-11.2s44.6,4.3,61.2,11.2h21.5c-19-13-48.7-21.2-82.7-21.2Z"/>
  <g>
    <path class="st0" d="M24.7,58.2h10.6v25.5h15.2v8.8h-25.7v-34.3Z"/>
    <path class="st0" d="M80.5,86.9c0,1.9,0,4,1.2,5.6h-9.7c-.2-.7-.4-1.6-.3-2.4h0c-2.1,2.3-4.9,3-8,3-4.8,0-8.8-2.3-8.8-7.5,0-7.9,9.3-7.5,14.1-8.5,1.3-.2,2.6-.6,2.6-2.2s-1.6-2.3-3.1-2.3c-2.9,0-3.6,1.5-3.6,2.5h-8.8c.2-7.1,7-8.2,12.8-8.2,11.9,0,11.8,4.9,11.8,9.7v10.2ZM71.4,81.3c-1.2.6-2.4.9-3.7,1.2-2.1.5-3.2,1-3.2,2.7s1.2,2.3,3,2.3,3.8-1.2,4-3.9v-2.3Z"/>
    <path class="st0" d="M87,67.5h9.2v3.2h0c1.8-2.5,4.3-3.8,8.1-3.8s8.5,2.7,8.5,8.4v17.1h-9.5v-13.1c0-2.9-.3-4.9-3.1-4.9s-3.8.8-3.8,4.8v13.2h-9.5v-24.9Z"/>
    <path class="st0" d="M145.5,92.4h-9.2v-2.7h0c-1.2,1.5-2.7,3.4-7.3,3.4-7.1,0-10.5-6.9-10.5-13.2s2.3-13,10.6-13,5.3,1.2,6.8,3.4h0v-12.1h9.5v34.3ZM132.1,73.8c-3.4,0-4.2,3.2-4.2,6.1s.8,6.2,4.2,6.2,4.2-3.3,4.2-6.2-.8-6.1-4.2-6.1Z"/>
    <path class="st0" d="M166.5,74.8c0-.8-.5-1.4-1.1-1.9-.6-.5-1.3-.7-2.1-.7-1.3,0-2.9.3-2.9,1.9s.6,1.1,1.1,1.3c1.5.6,5.2.9,8.4,1.9,3.2,1,6,2.9,6,7,0,6.9-6.6,8.8-12.7,8.8s-12.3-2.4-12.4-8.8h9.1c0,.8.4,1.6,1.2,2.2.5.5,1.4.7,2.5.7s3.2-.5,3.2-1.9-.8-1.9-5.2-2.6c-7.2-1.2-10.2-3.6-10.2-7.8,0-6.3,6.8-7.9,11.8-7.9s11.9,1.5,12.1,7.9h-8.6Z"/>
    <path class="st0" d="M181.1,67.5h9.2v2.7h0c1.2-1.5,2.7-3.4,7.3-3.4,7.1,0,10.5,6.9,10.5,13.2s-2.3,13-10.6,13-5.3-1.2-6.8-3.4h0v10.8h-9.5v-33ZM194.4,86.1c3.4,0,4.2-3.2,4.2-6.1s-.8-6.2-4.2-6.2-4.2,3.3-4.2,6.2.8,6.1,4.2,6.1Z"/>
    <path class="st0" d="M211.7,67.5h9.1v4h0c1.5-3,3.6-4.6,7-4.6s1.8.1,2.8.4v8.4c-1-.3-1.8-.6-3.7-.6-3.8,0-5.8,2.2-5.8,7.5v9.8h-9.5v-24.9Z"/>
    <path class="st0" d="M241.5,82.1c.2,2.9,1.8,4.8,4.8,4.8s3.2-.6,4-1.8h8.9c-1.9,5.4-7.2,7.9-12.8,7.9-8,0-14-4.7-14-13s5.2-13.2,13.2-13.2,14.2,5.5,14.2,15.2h-18.2ZM250.6,77.2c0-2.3-1.7-4.2-4.2-4.2s-4.5,1.5-4.9,4.2h9.1Z"/>
    <path class="st0" d="M265.2,67.5h9.2v3.2h0c1.8-2.5,4.3-3.8,8.1-3.8s8.5,2.7,8.5,8.4v17.1h-9.5v-13.1c0-2.9-.3-4.9-3.1-4.9s-3.8.8-3.8,4.8v13.2h-9.5v-24.9Z"/>
    <path class="st0" d="M308.2,67.5h5.1v5.9h-5.1v8.7c0,2.3.5,3.3,2.9,3.3s1.4,0,2.2-.1v7.2c-1.9,0-4,.3-6.1.3-4,0-8.5-.6-8.5-7.4v-11.9h-4.2v-5.9h4.2v-7.6h9.5v7.6Z"/>
  </g>
</svg>